<?xml version="1.0" encoding="UTF-8"?>
<svg width="18px" height="19px" viewBox="0 0 18 19" version="1.1" xmlns="http://www.w3.org/2000/svg" xmlns:xlink="http://www.w3.org/1999/xlink">
    <!-- Generator: Sketch 53.2 (72643) - https://sketchapp.com -->
    <title>dl_icon_mm</title>
    <desc>Created with Sketch.</desc>
    <g id="Page-1" stroke="none" stroke-width="1" fill="none" fill-rule="evenodd">
        <g id="0-1-登录-a" transform="translate(-1049.000000, -536.000000)" fill="#B2B2B2" fill-rule="nonzero">
            <g id="分组-4" transform="translate(355.000000, 274.000000)">
                <g id="分组" transform="translate(694.000000, 80.000000)">
                    <g id="dl_icon_mm" transform="translate(0.000000, 182.000000)">
                        <path d="M13.7371542,1.13026316 C13.4426877,0.934868421 13.0375494,0.966447368 12.7786561,1.225 L6.95256917,7.04342105 C6.88735178,7.10855263 6.83992095,7.18355263 6.80237154,7.2625 C5.2687747,6.79078947 3.52964427,7.15986842 2.31818182,8.36973684 C0.575098814,10.1105263 0.575098814,12.9447368 2.31818182,14.6875 C4.06126482,16.4302632 6.89920949,16.4282895 8.64426877,14.6875 C10.3873518,12.9467105 10.3873518,10.1125 8.64426877,8.36973684 C8.52173913,8.24736842 8.39525692,8.13684211 8.26482213,8.03223684 L11.1600791,5.14078947 L12.4545455,6.43355263 C12.770751,6.74934211 13.2885375,6.74934211 13.6047431,6.43355263 C13.9209486,6.11776316 13.9209486,5.60065789 13.6047431,5.28486842 L12.3102767,3.99210526 L13.3162055,2.9875 L14.6106719,4.28026316 C14.9268775,4.59605263 15.444664,4.59605263 15.7608696,4.28026316 C16.0770751,3.96447368 16.0770751,3.44736842 15.7608696,3.13157895 L13.9288538,1.30197368 L13.8537549,1.22697368 L13.7470356,1.11842105 L13.7371542,1.13026316 Z M7.49407115,13.5388158 C6.38339921,14.6480263 4.58102767,14.6480263 3.46837945,13.5388158 C2.35770751,12.4296053 2.35770751,10.6296053 3.46837945,9.51842105 C4.57905138,8.40921053 6.38142292,8.40921053 7.49407115,9.51842105 C8.60474308,10.6276316 8.60474308,12.4276316 7.49407115,13.5388158 Z" id="形状"></path>
                    </g>
                </g>
            </g>
        </g>
    </g>
</svg>