<?xml version="1.0" encoding="UTF-8"?>
<svg width="18px" height="19px" viewBox="0 0 18 19" version="1.1" xmlns="http://www.w3.org/2000/svg" xmlns:xlink="http://www.w3.org/1999/xlink">
    <!-- Generator: Sketch 53.2 (72643) - https://sketchapp.com -->
    <title>dl_icon_zh</title>
    <desc>Created with Sketch.</desc>
    <g id="Page-1" stroke="none" stroke-width="1" fill="none" fill-rule="evenodd">
        <g id="0-1-登录-a" transform="translate(-1050.000000, -427.000000)" fill="#B2B2B2" fill-rule="nonzero" stroke="#FFFFFF" stroke-width="0.3">
            <g id="分组-4" transform="translate(355.000000, 274.000000)">
                <g id="分组" transform="translate(694.000000, 80.000000)">
                    <g id="dl_icon_zh" transform="translate(1.000000, 73.000000)">
                        <path d="M17,13.9943662 L17,17.4890574 C17,17.7886024 16.8001951,17.988299 16.5004878,17.988299 L15.5014634,17.988299 C15.2017561,17.988299 15.0019512,17.7886024 15.0019512,17.4890574 L15.0019512,13.9943662 C15.0019512,13.3952763 14.6023415,12.995883 14.0029268,12.995883 L4.01268293,12.995883 C3.41326829,12.995883 3.01365854,13.3952763 3.01365854,13.9943662 L3.01365854,17.4890574 C3.01365854,17.7886024 2.81385366,17.988299 2.51414634,17.988299 L1.51512195,17.988299 C1.21541463,17.988299 1.01560976,17.7886024 1.01560976,17.4890574 L1.01560976,13.9943662 C1.01560976,12.2969447 2.31434146,10.9989166 4.01268293,10.9989166 L14.0029268,10.9989166 C15.7012683,10.9989166 17,12.2969447 17,13.9943662 L17,13.9943662 Z M9.00780488,10.0004334 C6.21053659,10.0004334 4.01268293,7.80377031 4.01268293,5.00801733 C4.01268293,2.21226436 6.21053659,0.0156013001 9.00780488,0.0156013001 C11.8050732,0.0156013001 14.0029268,2.21226436 14.0029268,5.00801733 C14.0029268,7.80377031 11.8050732,10.0004334 9.00780488,10.0004334 Z M9.00780488,2.01256771 C7.30946341,2.01256771 6.01073171,3.31059588 6.01073171,5.00801733 C6.01073171,6.70543879 7.30946341,8.00346696 9.00780488,8.00346696 C10.7061463,8.00346696 12.004878,6.70543879 12.004878,5.00801733 C12.004878,3.31059588 10.7061463,2.01256771 9.00780488,2.01256771 Z" id="形状"></path>
                    </g>
                </g>
            </g>
        </g>
    </g>
</svg>